<svg width="24" height="24" viewBox="0 0 24 24" fill="none" xmlns="http://www.w3.org/2000/svg">
<g id="WOM-mini/info-circle">
<path id="info-circle-mini" fill-rule="evenodd" clip-rule="evenodd" d="M12 17.0769C14.8039 17.0769 17.0769 14.8039 17.0769 12C17.0769 9.19607 14.8039 6.92308 12 6.92308C9.19607 6.92308 6.92308 9.19607 6.92308 12C6.92308 14.8039 9.19607 17.0769 12 17.0769ZM18 12C18 15.3137 15.3137 18 12 18C8.68627 18 6 15.3137 6 12C6 8.68627 8.68627 6 12 6C15.3137 6 18 8.68627 18 12ZM12 14.9231C11.7451 14.9231 11.5385 14.7164 11.5385 14.4615V11.3846C11.5385 11.1297 11.7451 10.9231 12 10.9231C12.2549 10.9231 12.4615 11.1297 12.4615 11.3846V14.4615C12.4615 14.7164 12.2549 14.9231 12 14.9231ZM12 10.0069C11.7451 10.0069 11.5385 9.80025 11.5385 9.54535V9.53846C11.5385 9.28356 11.7451 9.07692 12 9.07692C12.2549 9.07692 12.4615 9.28356 12.4615 9.53846V9.54535C12.4615 9.80025 12.2549 10.0069 12 10.0069Z" fill="#9C9BB3"/>
</g>
</svg>
